<svg width="18" height="18" viewBox="0 0 18 18" fill="none" xmlns="http://www.w3.org/2000/svg">
<path d="M12.8544 5.16709C12.7627 1.48925 10.1498 0.00520325 6.78184 0.00520325H0.25V7.43686L4.4269 11.5789V3.6997H6.85555C9.44957 3.6997 9.44957 7.28908 6.85555 7.28908H5.25094V10.7182H6.85555C9.44957 10.7182 9.44957 14.3065 6.85555 14.3065H0.25V18H6.78184C10.1489 18 12.7618 16.5159 12.8544 12.8381C12.8544 11.1459 12.4339 9.88147 11.693 9.00208C12.4339 8.12372 12.8544 6.85927 12.8544 5.16709Z" fill="#4081E6"/>
<path d="M11.5343 0H10.8085C11.0599 0.138413 11.2971 0.292436 11.5173 0.461029C12.1854 0.972012 12.7089 1.62141 13.0727 2.38944C13.4498 3.18662 13.6539 4.11284 13.6804 5.14313V12.8641C13.6548 13.8944 13.4507 14.8206 13.0727 15.6178C12.7089 16.3858 12.1863 17.0352 11.5173 17.5462C11.3037 17.7096 11.074 17.8594 10.8312 17.9947H11.5163C14.7879 18.0145 17.8573 16.213 17.8573 12.0846V6.05166C17.8752 1.84204 14.8059 0 11.5343 0Z" fill="white"/>
</svg>
