<svg width="22" height="21" viewBox="0 0 22 21" fill="none" xmlns="http://www.w3.org/2000/svg">
<g clip-path="url(#clip0)">
<path d="M10.6326 5.50134L9.04463 3.91343L12.3332 0.624834C12.7702 0.187921 13.4842 0.187921 13.9212 0.624834C14.3581 1.06175 14.3581 1.77584 13.9212 2.21275L10.6326 5.50134Z" fill="#99AAB5"/>
<path d="M10.4118 5.71744L8.82383 4.12952C8.70168 4.00737 8.70168 3.81006 8.82383 3.69261L12.1124 0.404021C12.6715 -0.155039 13.5782 -0.155039 14.1373 0.404021C14.6963 0.96308 14.6963 1.86979 14.1373 2.42885L10.8487 5.71744C10.7265 5.83958 10.5339 5.83958 10.4118 5.71744ZM9.48155 3.91341L10.6326 5.06442L13.7003 1.99664C14.0151 1.68187 14.0151 1.16509 13.7003 0.845631C13.3856 0.530866 12.8688 0.530866 12.5493 0.845631L9.48155 3.91341Z" fill="#23272A"/>
<path d="M14.9406 9.80939L13.3527 8.22147L16.6413 4.93288C17.0782 4.49597 17.7923 4.49597 18.2292 4.93288C18.6661 5.36979 18.6661 6.08389 18.2292 6.5208L14.9406 9.80939Z" fill="#99AAB5"/>
<path d="M14.7198 10.0255L13.1319 8.43758C13.0097 8.31544 13.0097 8.11812 13.1319 8.00067L16.4205 4.71208C16.9795 4.15302 17.8862 4.15302 18.4453 4.71208C19.0044 5.27114 19.0044 6.17785 18.4453 6.73691L15.1567 10.0255C15.0393 10.1477 14.8419 10.1477 14.7198 10.0255ZM13.7896 8.22148L14.9406 9.37248L18.0084 6.3047C18.3232 5.98993 18.3232 5.47315 18.0084 5.15369C17.6936 4.83423 17.1768 4.83893 16.8574 5.15369L13.7896 8.22148Z" fill="#23272A"/>
<path d="M8.13426 3.00448L7.00148 4.13727L14.7117 11.8475L15.8445 10.7147L8.13426 3.00448Z" fill="#23272A"/>
<path d="M14.4849 12.0738L6.7755 4.36442C6.64866 4.23757 6.64866 4.03556 6.7755 3.90872L7.90772 2.7765C8.03457 2.64965 8.23658 2.64965 8.36342 2.7765L16.0728 10.4859C16.1997 10.6127 16.1997 10.8148 16.0728 10.9416L14.9406 12.0738C14.8138 12.2007 14.6118 12.2007 14.4849 12.0738ZM7.45671 4.13892L14.7151 11.3973L15.3963 10.7161L8.13792 3.45771L7.45671 4.13892Z" fill="#23272A"/>
<path d="M7.82315 15.3906L3.45871 11.0262C2.7869 10.3544 2.7869 9.25973 3.45871 8.58792L7.45671 4.58994L14.2594 11.3926L10.2614 15.3906C9.5896 16.0671 8.49496 16.0671 7.82315 15.3906Z" fill="#7289DA"/>
<path d="M7.59765 15.6161L3.23322 11.2517C2.43456 10.453 2.43456 9.15638 3.23322 8.35773L7.23121 4.35974C7.35805 4.23289 7.56007 4.23289 7.68691 4.35974L14.4849 11.1671C14.6117 11.294 14.6117 11.496 14.4849 11.6228L10.4916 15.6161C9.69295 16.4148 8.39161 16.4148 7.59765 15.6161ZM7.45671 5.04564L3.68893 8.81343C3.13926 9.3631 3.13926 10.251 3.68893 10.8007L8.05336 15.1651C8.60302 15.7148 9.49094 15.7148 10.0406 15.1651L13.8084 11.3973L7.45671 5.04564Z" fill="#23272A"/>
<path d="M4.96298 12.5286L3.60098 13.8906L4.96298 15.2526L6.32498 13.8906L4.96298 12.5286Z" fill="#23272A"/>
<path d="M4.73188 15.4799L3.36946 14.1174C3.24262 13.9906 3.24262 13.7886 3.36946 13.6617L4.73188 12.2993C4.85872 12.1725 5.06073 12.1725 5.18758 12.2993L6.54999 13.6617C6.67684 13.7886 6.67684 13.9906 6.54999 14.1174L5.18758 15.4799C5.06073 15.602 4.85872 15.602 4.73188 15.4799ZM4.05537 13.8919L4.96208 14.7987L5.86879 13.8919L4.96208 12.9852L4.05537 13.8919Z" fill="#23272A"/>
<path d="M7.00101 20.9201L4.05537 17.9745C3.0547 16.9738 3.0547 15.3483 4.05537 14.3477C4.18222 14.2208 4.38423 14.2208 4.51108 14.3477C4.63792 14.4745 4.63792 14.6765 4.51108 14.8034C3.7594 15.555 3.7594 16.7765 4.51108 17.5235L7.46142 20.4738C7.58826 20.6007 7.58826 20.8027 7.46142 20.9295C7.33457 21.0564 7.12786 21.047 7.00101 20.9201Z" fill="#23272A"/>
</g>
<defs>
<clipPath id="clip0">
<rect width="21" height="21" fill="white" transform="translate(0.25)"/>
</clipPath>
</defs>
</svg>
