<svg width="19" height="19" viewBox="0 0 19 19" fill="none" xmlns="http://www.w3.org/2000/svg">
<g clip-path="url(#clip0)">
<path d="M2.62656 17.9375C2.28906 17.7687 2.05 17.5016 1.95156 17.2203C1.85313 16.9391 1.79688 15.6031 1.79688 13.7891C1.79688 10.5828 1.79688 10.5969 1.05156 10.4141C0.685937 10.3156 0.671875 10.2734 0.671875 9.48594C0.671875 8.74063 0.7 8.65625 0.967187 8.65625C1.12187 8.65625 1.375 8.58594 1.52969 8.51562C1.78281 8.375 1.79688 8.19219 1.79688 5.29531C1.79688 1.99062 1.86719 1.5125 2.47188 1.10469C2.82344 0.865625 3.30156 0.851562 9.17969 0.851562C14.0031 0.851562 15.6062 0.89375 15.9297 1.03437C16.7313 1.37187 16.7734 1.54063 16.8156 5.05625L16.8578 8.2625L17.4203 8.50156C17.9688 8.72656 17.9688 8.72656 17.9688 9.54219C17.9688 10.2734 17.9406 10.3438 17.6594 10.3438C17.4766 10.3438 17.2234 10.4422 17.0969 10.5406C16.8719 10.7094 16.8438 11.0328 16.8438 13.7469C16.8438 15.6031 16.7875 16.9391 16.6891 17.2203C16.5906 17.5156 16.3516 17.7547 15.9859 17.9375C15.4797 18.2047 15.1422 18.2188 9.29219 18.2188C3.49844 18.2047 3.10469 18.1906 2.62656 17.9375ZM10.0234 15.4906C12.2453 14.9 13.4266 13.6062 13.3 11.8906C13.2016 10.4281 12.2453 9.48594 9.88281 8.52969C7.92812 7.72812 7.5625 7.37656 7.5625 6.32188C7.5625 5.675 7.87187 5.09844 8.35 4.87344C8.98281 4.59219 10.3609 4.53594 11.4016 4.74688L12.3438 4.95781L12.4844 4.45156C12.6953 3.67813 12.6813 3.63594 11.8938 3.36875C10.3047 2.84844 8.04063 3.18594 6.85938 4.12812C6.08594 4.76094 5.5375 5.74531 5.5375 6.51875C5.55156 8.12187 6.39531 8.85312 10.0656 10.4844C10.9797 10.8922 11.2188 11.3 11.2188 12.4391C11.2188 13.2406 11.1906 13.2969 10.7125 13.6625C10.2766 14 10.0516 14.0563 9.06719 14.1125C8.30781 14.1406 7.57656 14.0844 6.95781 13.9437C5.73438 13.6625 5.77656 13.6484 5.67812 14.1125C5.62187 14.3234 5.55156 14.5906 5.50938 14.7312C5.46719 14.9 5.60781 15.0125 6.04375 15.1813C7.43594 15.7016 8.84219 15.8141 10.0234 15.4906Z" fill="#285959"/>
<path d="M2.85156 18.2891C2.17656 18.05 1.72656 17.5578 1.52969 16.8406C1.44531 16.5594 1.375 15.0406 1.375 13.4797V10.625H0.8125H0.25V9.57031V8.51562H0.798438H1.36094L1.40312 5.32344C1.44531 1.72344 1.52969 1.42812 2.5 0.851562C2.97813 0.584375 3.20312 0.570312 9.32031 0.570312C15.5781 0.570312 15.6484 0.570312 16.1406 0.879688C17.125 1.48438 17.1953 1.7375 17.2375 5.25312L17.2937 8.375H17.7016H18.1094V9.42969V10.4844H17.7016H17.2937L17.2375 13.6906C17.1953 17.2766 17.1391 17.5016 16.1828 18.1062L15.6484 18.4297L9.53125 18.4578C4.51094 18.4859 3.31562 18.4578 2.85156 18.2891ZM15.5641 17.5156C15.9297 17.3328 16.1687 17.0938 16.2672 16.7984C16.3656 16.5172 16.4219 15.1812 16.4219 13.325C16.4219 10.6109 16.45 10.2875 16.675 10.1188C16.8016 10.0203 17.0547 9.92188 17.2375 9.92188C17.4766 9.92188 17.5469 9.8375 17.5469 9.54219C17.5469 9.21875 17.4484 9.10625 16.9984 8.92344L16.4359 8.68437L16.3938 5.47813C16.3516 1.9625 16.3094 1.79375 15.5078 1.45625C15.1844 1.31563 13.6656 1.27344 9.17969 1.27344C3.70937 1.27344 3.24531 1.2875 2.89375 1.52656C2.28906 1.93438 2.21875 2.4125 2.21875 5.71719C2.21875 8.61406 2.20469 8.79688 1.95156 8.9375C1.79688 9.00781 1.54375 9.07812 1.38906 9.07812C1.16406 9.07812 1.09375 9.1625 1.09375 9.48594C1.09375 9.80937 1.16406 9.90781 1.47344 9.99219C2.21875 10.175 2.21875 10.1609 2.21875 13.3672C2.21875 15.1812 2.275 16.5172 2.37344 16.7984C2.47187 17.0797 2.71094 17.3469 3.04844 17.5156C3.52656 17.7687 3.90625 17.7828 9.29219 17.7969C14.7203 17.7969 15.0578 17.7828 15.5641 17.5156Z" fill="#28FEFE"/>
<path d="M7.07031 16.0109C6.36719 15.8703 4.89062 15.3641 4.89062 15.2656C4.89062 15.1109 5.45313 12.9734 5.50938 12.9172C5.52344 12.8891 5.73437 12.9594 5.95937 13.0859C6.64844 13.4375 8.37813 13.7609 9.1375 13.6766C11.0922 13.4375 11.4156 11.6937 9.64375 10.9062C5.72031 9.1625 5.11562 8.57187 5.10156 6.53281C5.10156 5.59063 5.14375 5.39375 5.52344 4.78906C6.45156 3.29844 7.87188 2.66563 10.2344 2.70781C11.6969 2.72188 13.2578 3.0875 13.2578 3.39688C13.2578 3.46719 13.1312 3.9875 12.9906 4.55C12.7516 5.47812 12.6953 5.57656 12.4281 5.52031C10.0797 4.97188 9.72813 4.94375 8.78594 5.30938C8.22344 5.53438 7.91406 6.18125 8.125 6.70156C8.33594 7.17969 8.8 7.48906 10.3047 8.10781C13.1313 9.26094 14.1578 10.6531 13.7641 12.7906C13.4688 14.4078 12.4281 15.3922 10.4453 15.9125C9.79844 16.0953 7.71719 16.1516 7.07031 16.0109Z" fill="#28FEFE"/>
</g>
<defs>
<clipPath id="clip0">
<rect width="18" height="18" fill="white" transform="translate(0.25 0.5)"/>
</clipPath>
</defs>
</svg>
